<?xml version="1.0" standalone="no"?>
<!DOCTYPE svg PUBLIC "-//W3C//DTD SVG 20010904//EN"
 "http://www.w3.org/TR/2001/REC-SVG-20010904/DTD/svg10.dtd">
<svg version="1.0" xmlns="http://www.w3.org/2000/svg"
 width="512.000000pt" height="512.000000pt" viewBox="0 0 512.000000 512.000000"
 preserveAspectRatio="xMidYMid meet">

<g transform="translate(0.000000,512.000000) scale(0.100000,-0.100000)"
fill="#000000" stroke="none">
<path d="M2190 4329 c-273 -32 -530 -127 -770 -286 -221 -147 -441 -396 -562
-637 -114 -227 -179 -480 -182 -711 -1 -89 2 -105 24 -145 67 -118 216 -145
318 -56 49 43 69 95 77 206 29 407 236 771 559 984 229 152 448 219 716 219
215 0 376 -36 565 -128 87 -42 255 -152 255 -167 0 -5 -25 -8 -55 -8 -63 0
-115 -22 -157 -67 -98 -103 -67 -267 64 -334 35 -18 62 -19 390 -19 322 0 357
2 394 19 49 22 97 78 113 130 14 48 15 671 1 720 -43 151 -227 207 -342 103
-54 -49 -70 -84 -77 -170 l-6 -73 -65 52 c-350 282 -817 419 -1260 368z"/>
<path d="M3919 2687 c-24 -13 -57 -42 -73 -65 -27 -38 -30 -53 -42 -184 -22
-232 -55 -352 -145 -528 -175 -342 -498 -584 -889 -667 -119 -25 -372 -24
-490 1 -183 39 -352 112 -495 214 l-80 57 77 5 c65 5 85 11 120 35 63 45 90
104 86 187 -4 82 -39 139 -108 175 l-44 24 -372 -3 -371 -3 -41 -29 c-27 -18
-51 -47 -67 -81 l-26 -52 3 -361 3 -360 30 -44 c96 -136 293 -120 369 29 10
20 16 57 16 103 0 38 3 70 8 70 4 0 34 -22 67 -49 537 -437 1306 -501 1909
-160 477 270 787 736 855 1289 16 124 14 244 -5 288 -48 116 -186 166 -295
109z"/>
</g>
</svg>
