<?xml version="1.0" standalone="no"?>
<!DOCTYPE svg PUBLIC "-//W3C//DTD SVG 20010904//EN"
 "http://www.w3.org/TR/2001/REC-SVG-20010904/DTD/svg10.dtd">
<svg version="1.0" xmlns="http://www.w3.org/2000/svg"
 width="700.000000pt" height="394.000000pt" viewBox="0 0 700.000000 394.000000"
 preserveAspectRatio="xMidYMid meet">

<g transform="translate(0.000000,394.000000) scale(0.100000,-0.100000)"
fill="#000000" stroke="none">
<path d="M3281 3859 c-289 -31 -593 -140 -845 -305 -247 -162 -454 -377 -606
-629 -341 -564 -368 -1282 -72 -1871 221 -440 597 -781 1044 -948 108 -40 126
-42 168 -21 47 24 54 65 46 264 -4 97 -8 177 -10 178 -1 2 -27 -1 -56 -7 -120
-23 -318 -1 -414 46 -78 38 -146 114 -180 201 -35 88 -102 189 -155 233 -118
99 -132 114 -129 134 4 27 57 38 122 25 98 -18 204 -102 279 -219 45 -72 99
-122 167 -157 49 -24 65 -28 145 -27 84 1 144 11 205 35 21 8 29 22 44 79 10
42 34 94 57 129 21 32 39 61 39 63 0 3 -29 8 -65 12 -164 17 -363 90 -490 181
-159 113 -261 296 -300 540 -20 120 -19 317 1 408 19 89 90 237 140 296 l37
43 -18 71 c-32 123 -19 306 29 422 14 33 18 35 59 35 84 0 274 -72 414 -157
l74 -45 102 21 c272 56 502 56 774 0 l102 -21 75 46 c143 89 317 156 406 156
46 0 48 -1 63 -37 8 -21 22 -73 32 -116 21 -94 17 -258 -8 -326 -16 -44 -16
-45 11 -75 112 -128 172 -306 172 -508 0 -244 -63 -464 -175 -617 -109 -148
-331 -266 -575 -306 -143 -23 -138 -21 -108 -53 35 -37 73 -116 87 -180 7 -33
11 -174 11 -373 0 -354 3 -375 59 -398 40 -17 73 -10 205 44 631 257 1092 853
1181 1523 29 212 16 520 -30 719 -108 475 -416 914 -830 1185 -122 81 -328
181 -455 222 -256 83 -553 113 -829 85z"/>
</g>
</svg>
